<svg width="60" height="60" viewBox="0 0 60 60" fill="none" xmlns="http://www.w3.org/2000/svg">
<g clip-path="url(#clip0_8421_3)">
<rect width="60" height="60" rx="10" fill="#D9D9D9"/>
<rect width="60" height="60" fill="#FFB548" fill-opacity="0.54"/>
<path d="M3.6473 19H5.3273C5.87397 19 6.28397 19.1467 6.5573 19.44C6.83064 19.7333 6.9673 20.1633 6.9673 20.73V24.27C6.9673 24.8367 6.83064 25.2667 6.5573 25.56C6.28397 25.8533 5.87397 26 5.3273 26H3.6473V19ZM5.3073 25C5.4873 25 5.62397 24.9467 5.7173 24.84C5.8173 24.7333 5.8673 24.56 5.8673 24.32V20.68C5.8673 20.44 5.8173 20.2667 5.7173 20.16C5.62397 20.0533 5.4873 20 5.3073 20H4.7473V25H5.3073ZM8.7098 19H11.7098V20H9.8098V21.85H11.3198V22.85H9.8098V25H11.7098V26H8.7098V19ZM13.3426 19H16.2526V20H14.4426V21.95H15.8626V22.95H14.4426V26H13.3426V19ZM17.7801 19H20.7801V20H18.8801V21.85H20.3901V22.85H18.8801V25H20.7801V26H17.7801V19ZM22.4129 19H23.7929L24.8629 23.19H24.8829V19H25.8629V26H24.7329L23.4129 20.89H23.3929V26H22.4129V19ZM27.6805 19H29.3605C29.9072 19 30.3172 19.1467 30.5905 19.44C30.8638 19.7333 31.0005 20.1633 31.0005 20.73V24.27C31.0005 24.8367 30.8638 25.2667 30.5905 25.56C30.3172 25.8533 29.9072 26 29.3605 26H27.6805V19ZM29.3405 25C29.5205 25 29.6572 24.9467 29.7505 24.84C29.8505 24.7333 29.9005 24.56 29.9005 24.32V20.68C29.9005 20.44 29.8505 20.2667 29.7505 20.16C29.6572 20.0533 29.5205 20 29.3405 20H28.7805V25H29.3405ZM32.743 19H35.743V20H33.843V21.85H35.353V22.85H33.843V25H35.743V26H32.743V19ZM37.3758 19H39.0058C39.5725 19 39.9858 19.1333 40.2458 19.4C40.5058 19.66 40.6358 20.0633 40.6358 20.61V21.04C40.6358 21.7667 40.3958 22.2267 39.9158 22.42V22.44C40.1825 22.52 40.3692 22.6833 40.4758 22.93C40.5892 23.1767 40.6458 23.5067 40.6458 23.92V25.15C40.6458 25.35 40.6525 25.5133 40.6658 25.64C40.6792 25.76 40.7125 25.88 40.7658 26H39.6458C39.6058 25.8867 39.5792 25.78 39.5658 25.68C39.5525 25.58 39.5458 25.4 39.5458 25.14V23.86C39.5458 23.54 39.4925 23.3167 39.3858 23.19C39.2858 23.0633 39.1092 23 38.8558 23H38.4758V26H37.3758V19ZM38.8758 22C39.0958 22 39.2592 21.9433 39.3658 21.83C39.4792 21.7167 39.5358 21.5267 39.5358 21.26V20.72C39.5358 20.4667 39.4892 20.2833 39.3958 20.17C39.3092 20.0567 39.1692 20 38.9758 20H38.4758V22H38.8758ZM43.839 26.1C43.3057 26.1 42.9024 25.95 42.629 25.65C42.3557 25.3433 42.219 24.9067 42.219 24.34V23.94H43.259V24.42C43.259 24.8733 43.449 25.1 43.829 25.1C44.0157 25.1 44.1557 25.0467 44.249 24.94C44.349 24.8267 44.399 24.6467 44.399 24.4C44.399 24.1067 44.3324 23.85 44.199 23.63C44.0657 23.4033 43.819 23.1333 43.459 22.82C43.0057 22.42 42.689 22.06 42.509 21.74C42.329 21.4133 42.239 21.0467 42.239 20.64C42.239 20.0867 42.379 19.66 42.659 19.36C42.939 19.0533 43.3457 18.9 43.879 18.9C44.4057 18.9 44.8024 19.0533 45.069 19.36C45.3424 19.66 45.479 20.0933 45.479 20.66V20.95H44.439V20.59C44.439 20.35 44.3924 20.1767 44.299 20.07C44.2057 19.9567 44.069 19.9 43.889 19.9C43.5224 19.9 43.339 20.1233 43.339 20.57C43.339 20.8233 43.4057 21.06 43.539 21.28C43.679 21.5 43.929 21.7667 44.289 22.08C44.749 22.48 45.0657 22.8433 45.239 23.17C45.4124 23.4967 45.499 23.88 45.499 24.32C45.499 24.8933 45.3557 25.3333 45.069 25.64C44.789 25.9467 44.379 26.1 43.839 26.1ZM51.3213 26.1C50.7813 26.1 50.368 25.9467 50.0813 25.64C49.7946 25.3333 49.6513 24.9 49.6513 24.34V20.66C49.6513 20.1 49.7946 19.6667 50.0813 19.36C50.368 19.0533 50.7813 18.9 51.3213 18.9C51.8613 18.9 52.2746 19.0533 52.5613 19.36C52.848 19.6667 52.9913 20.1 52.9913 20.66V24.34C52.9913 24.9 52.848 25.3333 52.5613 25.64C52.2746 25.9467 51.8613 26.1 51.3213 26.1ZM51.3213 25.1C51.7013 25.1 51.8913 24.87 51.8913 24.41V20.59C51.8913 20.13 51.7013 19.9 51.3213 19.9C50.9413 19.9 50.7513 20.13 50.7513 20.59V24.41C50.7513 24.87 50.9413 25.1 51.3213 25.1ZM54.7352 19H57.6452V20H55.8352V21.95H57.2552V22.95H55.8352V26H54.7352V19ZM18.1092 32H19.2092V34.95L20.6092 32H21.7092L20.3992 34.57L21.7292 39H20.5792L19.6492 35.88L19.2092 36.77V39H18.1092V32ZM24.0998 32H25.5898L26.7298 39H25.6298L25.4298 37.61V37.63H24.1798L23.9798 39H22.9598L24.0998 32ZM25.2998 36.68L24.8098 33.22H24.7898L24.3098 36.68H25.2998ZM28.2635 32H29.9435C30.4902 32 30.9002 32.1467 31.1735 32.44C31.4468 32.7333 31.5835 33.1633 31.5835 33.73V37.27C31.5835 37.8367 31.4468 38.2667 31.1735 38.56C30.9002 38.8533 30.4902 39 29.9435 39H28.2635V32ZM29.9235 38C30.1035 38 30.2402 37.9467 30.3335 37.84C30.4335 37.7333 30.4835 37.56 30.4835 37.32V33.68C30.4835 33.44 30.4335 33.2667 30.3335 33.16C30.2402 33.0533 30.1035 33 29.9235 33H29.3635V38H29.9235ZM34.916 39.1C34.376 39.1 33.9627 38.9467 33.676 38.64C33.3893 38.3333 33.246 37.9 33.246 37.34V33.66C33.246 33.1 33.3893 32.6667 33.676 32.36C33.9627 32.0533 34.376 31.9 34.916 31.9C35.456 31.9 35.8693 32.0533 36.156 32.36C36.4427 32.6667 36.586 33.1 36.586 33.66V37.34C36.586 37.9 36.4427 38.3333 36.156 38.64C35.8693 38.9467 35.456 39.1 34.916 39.1ZM34.916 38.1C35.296 38.1 35.486 37.87 35.486 37.41V33.59C35.486 33.13 35.296 32.9 34.916 32.9C34.536 32.9 34.346 33.13 34.346 33.59V37.41C34.346 37.87 34.536 38.1 34.916 38.1ZM38.3299 32H39.8999L40.5999 37.01H40.6199L41.3199 32H42.8899V39H41.8499V33.7H41.8299L41.0299 39H40.1099L39.3099 33.7H39.2899V39H38.3299V32Z" fill="#E93830"/>
</g>
<defs>
<clipPath id="clip0_8421_3">
<rect width="60" height="60" rx="10" fill="white"/>
</clipPath>
</defs>
</svg>
